<svg width="145" height="145" viewBox="0 0 145 145" fill="none" xmlns="http://www.w3.org/2000/svg">
<path d="M48.3333 102.951V42.049C48.3333 37.5801 52.466 34.7957 55.7568 37.0475L100.259 67.4985C103.525 69.7328 103.525 75.2672 100.259 77.5015L55.7569 107.953C52.466 110.204 48.3333 107.42 48.3333 102.951Z" stroke="#0892D0" stroke-width="2" stroke-linecap="round" stroke-linejoin="round"/>
<path d="M5 2H140V-2H5V2ZM143 5V140H147V5H143ZM140 143H5V147H140V143ZM2 140V5H-2V140H2ZM5 143C3.34315 143 2 141.657 2 140H-2C-2 143.866 1.13401 147 5 147V143ZM143 140C143 141.657 141.657 143 140 143V147C143.866 147 147 143.866 147 140H143ZM140 2C141.657 2 143 3.34315 143 5H147C147 1.13401 143.866 -2 140 -2V2ZM5 -2C1.13401 -2 -2 1.13401 -2 5H2C2 3.34315 3.34315 2 5 2V-2Z" fill="#0892D0"/>
</svg>
